<svg width="81" height="46" viewBox="0 0 81 46" fill="none" xmlns="http://www.w3.org/2000/svg">
<g clip-path="url(#clip0_105_6)">
<path d="M76.8634 36.9629C78.0755 35.7988 78.095 33.8662 76.9067 32.6778L51.5086 7.27977C45.6508 1.42191 36.1533 1.42191 30.2954 7.27977L4.82906 32.7461C3.66057 33.9146 3.65704 35.808 4.82117 36.9809L11.24 43.4477C12.4096 44.6261 14.3138 44.6304 15.4888 43.4574L37.3386 21.6439C39.3055 19.6802 42.4964 19.6975 44.442 21.6824L65.799 43.4717C66.9504 44.6465 68.833 44.6749 70.0194 43.5356L76.8634 36.9629Z" fill="#333" stroke="#333" stroke-width="2"/>
</g>
<defs>
<clipPath id="clip0_105_6">
<rect width="45" height="80" fill="white" transform="matrix(0 -1 -1 0 80.5 45.5)"/>
</clipPath>
</defs>
</svg>
