<svg width="81" height="46" viewBox="0 0 81 46" fill="none" xmlns="http://www.w3.org/2000/svg">
<g clip-path="url(#clip0_105_6)">
<path d="M4.13663 9.03707C2.92449 10.2012 2.90495 12.1338 4.09331 13.3222L29.4914 38.7202C35.3492 44.5781 44.8467 44.5781 50.7046 38.7202L76.1709 13.2539C77.3394 12.0854 77.343 10.192 76.1788 9.01914L69.76 2.55227C68.5904 1.37393 66.6862 1.36959 65.5112 2.5426L43.6614 24.3561C41.6945 26.3198 38.5036 26.3025 36.558 24.3176L15.201 2.52825C14.0496 1.35352 12.167 1.32505 10.9806 2.46443L4.13663 9.03707Z" fill="#333" stroke="#333" stroke-width="2"/>
</g>
<defs>
<clipPath id="clip0_105_6">
<rect width="45" height="80" fill="white" transform="matrix(0 1 1 0 0.5 0.5)"/>
</clipPath>
</defs>
</svg>
