<svg width="45" height="80" viewBox="0 0 45 80" fill="none" xmlns="http://www.w3.org/2000/svg">
<g clip-path="url(#clip0_105_6)">
<path d="M36.4629 3.63663C35.2989 2.42449 33.3662 2.40495 32.1779 3.59331L6.77978 28.9914C0.921921 34.8492 0.921921 44.3467 6.77978 50.2046L32.2461 75.6709C33.4146 76.8394 35.308 76.843 36.4809 75.6788L42.9477 69.26C44.1261 68.0904 44.1304 66.1862 42.9574 65.0112L21.1439 43.1614C19.1802 41.1945 19.1975 38.0036 21.1824 36.058L42.9718 14.701C44.1465 13.5496 44.175 11.667 43.0356 10.4806L36.4629 3.63663Z" fill="#333" stroke="#333" stroke-width="2"/>
</g>
<defs>
<clipPath id="clip0_105_6">
<rect width="45" height="80" fill="white" transform="matrix(-1 0 0 1 45 0)"/>
</clipPath>
</defs>
</svg>
